<svg width="1512" height="982" viewBox="0 0 1512 982" fill="none" xmlns="http://www.w3.org/2000/svg">
<g clip-path="url(#clip0_2_5)">
<rect width="1512" height="982" fill="white"/>
<path d="M0.6173 283C210 283 250.358 509.185 444.843 539C652.747 556.132 692.247 598.76 715.543 695C751.045 783.811 806.078 817.549 975.831 845C1237.7 882.015 1278.09 933.437 1309 1037H639.191C675.297 933.386 727.65 863.763 391.05 894C145.242 881.994 107.247 847.428 149.849 755C149.218 671.368 127.197 640.295 -15 660V283H0.6173Z" fill="url(#paint0_linear_2_5)"/>
<path d="M-14.3552 469C169.5 469 191.608 639.924 345.32 661.849C513.653 674.754 545.635 706.867 564.497 779.366C593.242 846.269 637.8 871.684 775.244 892.363C987.271 920.248 1019.97 958.984 1045 1037H502.678C531.911 958.946 574.299 906.498 301.765 929.276C102.743 920.231 71.9797 894.193 106.473 824.565C105.962 761.564 88.1323 738.156 -27 753V469H-14.3552Z" fill="url(#paint1_linear_2_5)"/>
<path d="M-178.383 546C-32.6799 566.955 -82.5696 568.398 2 620.5C107.505 685.5 87.0113 774.584 265.843 802C473.747 819.132 513.247 861.76 536.543 958C572.045 1046.81 627.078 1080.55 796.831 1108C1058.7 1145.02 1099.09 1196.44 1130 1300H460.191C496.297 1196.39 548.65 1126.76 212.05 1157C-33.7579 1144.99 -71.7527 1110.43 -29.1507 1018C-29.7824 934.368 -51.8031 903.295 -194 923V546H-178.383Z" fill="url(#paint2_linear_2_5)"/>
<path d="M-523.383 546C-377.68 566.955 -336.712 598.26 -303.005 673C-304.699 745.764 -257.989 774.584 -79.1573 802C128.747 819.132 168.247 861.76 191.543 958C227.045 1046.81 282.078 1080.55 451.831 1108C713.701 1145.02 754.086 1196.44 785 1300H115.191C151.297 1196.39 203.65 1126.76 -132.95 1157C-378.758 1144.99 -416.753 1110.43 -374.151 1018C-374.782 934.368 -396.803 903.295 -539 923V546H-523.383Z" fill="url(#paint3_linear_2_5)"/>
<circle cx="206.5" cy="206.5" r="6.5" fill="url(#paint4_linear_2_5)"/>
<circle cx="301" cy="239" r="47" fill="url(#paint5_linear_2_5)"/>
<circle cx="381.5" cy="416.5" r="20.5" fill="url(#paint6_linear_2_5)"/>
<circle cx="1339.5" cy="249.5" r="10.5" fill="#CBDA6F"/>
<circle cx="1339.5" cy="179.5" r="30.5" fill="url(#paint7_linear_2_5)"/>
<path d="M1229 220.5C1229 231.822 1219.82 241 1208.5 241C1197.18 241 1188 231.822 1188 220.5C1188 209.178 1197.18 200 1208.5 200C1219.82 200 1229 209.178 1229 220.5Z" fill="url(#paint8_linear_2_5)"/>
</g>
<defs>
<linearGradient id="paint0_linear_2_5" x1="647" y1="283" x2="647" y2="1037" gradientUnits="userSpaceOnUse">
<stop stop-color="#0029FF"/>
<stop offset="1" stop-color="#FEFFC4"/>
</linearGradient>
<linearGradient id="paint1_linear_2_5" x1="4" y1="510" x2="509" y2="1037" gradientUnits="userSpaceOnUse">
<stop stop-color="#00BAAF"/>
<stop offset="0.89367" stop-color="#AFB05E"/>
</linearGradient>
<linearGradient id="paint2_linear_2_5" x1="468" y1="546" x2="468" y2="1300" gradientUnits="userSpaceOnUse">
<stop stop-color="#E91515"/>
<stop offset="1" stop-color="#FAFF0E"/>
</linearGradient>
<linearGradient id="paint3_linear_2_5" x1="123" y1="546" x2="123" y2="1300" gradientUnits="userSpaceOnUse">
<stop stop-color="#FF5C00"/>
<stop offset="1" stop-color="#0047FF"/>
</linearGradient>
<linearGradient id="paint4_linear_2_5" x1="206.5" y1="200" x2="216.5" y2="213" gradientUnits="userSpaceOnUse">
<stop stop-color="#6B83E6"/>
<stop offset="1" stop-color="#E33C64" stop-opacity="0"/>
</linearGradient>
<linearGradient id="paint5_linear_2_5" x1="301" y1="192" x2="389" y2="260" gradientUnits="userSpaceOnUse">
<stop stop-color="#EF7013"/>
<stop offset="1" stop-color="#EF7013" stop-opacity="0"/>
</linearGradient>
<linearGradient id="paint6_linear_2_5" x1="381.5" y1="396" x2="431" y2="444.5" gradientUnits="userSpaceOnUse">
<stop stop-color="#1C41F9"/>
<stop offset="1" stop-color="#F07312"/>
</linearGradient>
<linearGradient id="paint7_linear_2_5" x1="1296.5" y1="179" x2="1339.5" y2="210" gradientUnits="userSpaceOnUse">
<stop stop-color="#637CE8"/>
<stop offset="1" stop-color="#D7DECD"/>
</linearGradient>
<linearGradient id="paint8_linear_2_5" x1="1144" y1="192" x2="1241" y2="228.5" gradientUnits="userSpaceOnUse">
<stop offset="0.413683" stop-color="#597959"/>
<stop offset="1" stop-color="#EE5F13"/>
</linearGradient>
<clipPath id="clip0_2_5">
<rect width="1512" height="982" fill="white"/>
</clipPath>
</defs>
</svg>
